<svg xmlns="http://www.w3.org/2000/svg" viewBox="0 0 800 420" font-family="-apple-system, BlinkMacSystemFont, 'Segoe UI', Helvetica, Arial, sans-serif">

  <!-- Background -->
  <rect width="800" height="420" rx="12" fill="#0d1117"/>

  <!-- Title -->
  <text x="400" y="26" text-anchor="middle" fill="#94a3b8" font-size="11" font-weight="600" letter-spacing="2">R A C C O O N L I B  —  I N T E R N A L  A R C H I T E C T U R E</text>

  <!-- ═══ Layer 5: Robot & Mission API ═══ -->
  <rect x="40" y="40" rx="8" width="720" height="60" fill="#7c3aed"/>
  <circle cx="70" cy="62" r="12" fill="#6d28d9"/>
  <text x="70" y="67" text-anchor="middle" fill="#e9d5ff" font-size="12" font-weight="700">5</text>
  <text x="94" y="60" fill="#fff" font-size="13" font-weight="600">Robot &amp; Mission API</text>
  <text x="94" y="76" fill="#c4b5fd" font-size="11">GenericRobot · Mission · SetupMission · Python Bindings (pybind11)</text>
  <text x="750" y="60" text-anchor="end" fill="#a78bfa" font-size="10" font-style="italic">What you subclass</text>
  <text x="750" y="73" text-anchor="end" fill="#a78bfa" font-size="10" font-style="italic">and run</text>

  <!-- Arrow -->
  <polygon points="400,100 394,108 406,108" fill="#475569" opacity="0.6"/>

  <!-- ═══ Layer 4: Step Framework ═══ -->
  <rect x="40" y="112" rx="8" width="720" height="60" fill="#2563eb"/>
  <circle cx="70" cy="134" r="12" fill="#1d4ed8"/>
  <text x="70" y="139" text-anchor="middle" fill="#bfdbfe" font-size="12" font-weight="700">4</text>
  <text x="94" y="132" fill="#fff" font-size="13" font-weight="600">Step Framework</text>
  <text x="94" y="148" fill="#93c5fd" font-size="11">seq() · parallel() · .until() · drive_forward() · turn_right() · servo steps · sensor steps</text>
  <text x="750" y="132" text-anchor="end" fill="#60a5fa" font-size="10" font-style="italic">What you write</text>
  <text x="750" y="145" text-anchor="end" fill="#60a5fa" font-size="10" font-style="italic">in missions</text>

  <!-- Arrow -->
  <polygon points="400,172 394,180 406,180" fill="#475569" opacity="0.6"/>

  <!-- ═══ Layer 3: Motion & Control ═══ -->
  <rect x="40" y="184" rx="8" width="720" height="60" fill="#0891b2"/>
  <circle cx="70" cy="206" r="12" fill="#0e7490"/>
  <text x="70" y="211" text-anchor="middle" fill="#a5f3fc" font-size="12" font-weight="700">3</text>
  <text x="94" y="204" fill="#fff" font-size="13" font-weight="600">Motion &amp; Control</text>
  <text x="94" y="220" fill="#67e8f9" font-size="11">Drive · Motion planner · Kinematics (differential &amp; mecanum) · Odometry · Calibration</text>
  <text x="750" y="204" text-anchor="end" fill="#22d3ee" font-size="10" font-style="italic">PID · feedforward</text>
  <text x="750" y="217" text-anchor="end" fill="#22d3ee" font-size="10" font-style="italic">IMU fusion</text>

  <!-- Arrow -->
  <polygon points="400,244 394,252 406,252" fill="#475569" opacity="0.6"/>

  <!-- ═══ Layer 2: Foundation ═══ -->
  <rect x="40" y="256" rx="8" width="720" height="60" fill="#059669"/>
  <circle cx="70" cy="278" r="12" fill="#047857"/>
  <text x="70" y="283" text-anchor="middle" fill="#a7f3d0" font-size="12" font-weight="700">2</text>
  <text x="94" y="276" fill="#fff" font-size="13" font-weight="600">Foundation</text>
  <text x="94" y="292" fill="#6ee7b7" font-size="11">PidController · Feedforward · AxisConstraints · Timing · Logging (spdlog)</text>
  <text x="750" y="276" text-anchor="end" fill="#34d399" font-size="10" font-style="italic">Core primitives</text>
  <text x="750" y="289" text-anchor="end" fill="#34d399" font-size="10" font-style="italic">shared across all layers</text>

  <!-- Arrow -->
  <polygon points="400,316 394,324 406,324" fill="#475569" opacity="0.6"/>

  <!-- ═══ Layer 1: HAL & Platform ═══ -->
  <rect x="40" y="328" rx="8" width="720" height="60" fill="#d97706"/>
  <circle cx="70" cy="350" r="12" fill="#b45309"/>
  <text x="70" y="355" text-anchor="middle" fill="#fef3c7" font-size="12" font-weight="700">1</text>
  <text x="94" y="348" fill="#fff" font-size="13" font-weight="600">Hardware Abstraction Layer &amp; Platform</text>
  <text x="94" y="364" fill="#fde68a" font-size="11">Motor · Servo · IMU · AnalogSensor · DigitalSensor  —  Wombat / Raspberry Pi ARM64</text>
  <text x="750" y="348" text-anchor="end" fill="#fbbf24" font-size="10" font-style="italic">KIPR Wombat</text>
  <text x="750" y="361" text-anchor="end" fill="#fbbf24" font-size="10" font-style="italic">hardware drivers</text>

  <!-- Footer -->
  <text x="400" y="406" text-anchor="middle" fill="#334155" font-size="10" letter-spacing="3" font-weight="600">htl-stp-ecer / raccoon-lib</text>

</svg>